<?xml version="1.0" standalone="no"?>
<!DOCTYPE svg PUBLIC "-//W3C//DTD SVG 20010904//EN"
 "http://www.w3.org/TR/2001/REC-SVG-20010904/DTD/svg10.dtd">
<svg version="1.0" xmlns="http://www.w3.org/2000/svg"
 width="210.000000pt" height="210.000000pt" viewBox="0 0 210.000000 210.000000"
 preserveAspectRatio="xMidYMid meet">
<metadata>
Created by potrace 1.11, written by Peter Selinger 2001-2013
</metadata>
<g transform="translate(0.000000,210.000000) scale(0.100000,-0.100000)"
fill="#000000" stroke="none">
<path d="M833 1982 c-17 -21 -19 -29 -10 -41 10 -12 9 -14 -5 -8 -13 4 -15 2
-11 -10 4 -9 2 -14 -3 -11 -5 4 -9 -4 -9 -17 0 -13 2 -23 5 -23 21 2 30 -5 30
-23 0 -13 4 -18 13 -13 9 6 9 4 -1 -8 -10 -13 -10 -17 0 -20 8 -3 6 -7 -5 -11
-9 -3 -17 -2 -17 3 0 5 -9 7 -19 5 -16 -3 -19 1 -15 21 2 13 0 24 -6 24 -6 0
-8 -4 -5 -10 3 -5 1 -10 -4 -10 -6 0 -11 5 -11 12 0 9 -3 9 -12 0 -8 -8 -15
-9 -25 -1 -9 8 -14 7 -19 -4 -3 -9 -12 -13 -21 -10 -10 4 -14 2 -9 -5 3 -6 2
-14 -4 -17 -6 -4 -9 -1 -8 7 2 7 -2 12 -9 11 -8 -2 -10 4 -6 15 3 9 3 14 -2
10 -11 -10 -44 34 -37 51 4 10 1 13 -11 8 -9 -3 -16 -3 -14 1 1 4 -7 19 -18
33 -15 19 -23 23 -31 15 -6 -6 -8 -18 -6 -25 3 -10 0 -12 -12 -8 -14 6 -14 4
1 -21 17 -26 17 -27 -2 -12 -12 10 -16 11 -11 2 15 -26 14 -62 -2 -62 -13 0
-12 -3 4 -16 10 -8 13 -12 5 -8 -10 5 -12 3 -7 -5 5 -7 14 -10 22 -7 7 3 16 0
20 -6 4 -6 3 -9 -2 -6 -5 3 -15 -1 -23 -9 -12 -13 -11 -14 10 -8 17 4 20 3 10
-3 -7 -5 -11 -14 -7 -20 3 -6 2 -13 -4 -17 -6 -4 -7 -12 -4 -18 5 -8 3 -8 -7
1 -7 6 -17 12 -22 12 -4 0 -5 -6 -1 -12 4 -7 -3 -4 -15 7 -17 15 -24 16 -30 7
-5 -9 -17 -11 -34 -6 -22 5 -27 3 -27 -13 0 -10 -6 -25 -12 -32 -9 -10 -9 -12
-1 -7 6 3 15 1 19 -5 4 -8 3 -9 -4 -5 -8 5 -12 0 -12 -13 0 -12 -4 -21 -10
-21 -5 0 -7 8 -4 18 5 13 4 14 -4 3 -6 -8 -8 -21 -4 -29 3 -10 1 -13 -6 -8 -7
4 -12 2 -12 -5 0 -6 -8 -9 -20 -6 -11 3 -17 1 -14 -4 3 -6 0 -16 -6 -25 -10
-12 -16 -12 -28 -2 -9 7 -13 8 -9 2 4 -6 -3 -20 -15 -30 -21 -19 -21 -19 -8 6
l13 25 -24 -22 c-17 -15 -29 -19 -39 -13 -10 6 -21 3 -34 -8 -14 -13 -20 -14
-23 -4 -7 18 -21 15 -28 -8 -4 -12 -11 -17 -18 -14 -9 5 -9 4 0 -6 6 -7 9 -19
6 -26 -3 -8 0 -14 6 -14 6 0 11 -5 11 -11 0 -5 -4 -7 -10 -4 -6 4 -7 -1 -3
-11 4 -11 8 -13 11 -6 2 7 8 10 12 7 5 -3 7 -13 4 -23 -4 -10 -3 -13 3 -6 8
12 60 25 100 26 13 0 20 4 17 9 -3 6 6 8 20 5 16 -3 24 -1 20 5 -4 7 5 9 24 6
25 -4 29 -2 25 11 -5 11 -2 14 10 9 9 -3 17 -2 17 3 0 6 5 10 11 10 5 0 8 -4
5 -9 -4 -5 3 -7 15 -4 13 4 17 8 9 13 -8 5 -4 9 9 13 12 3 19 1 16 -3 -3 -5
-1 -12 5 -15 6 -4 10 -3 9 2 -3 19 2 30 16 30 9 0 12 -5 7 -12 -4 -6 1 -2 11
8 16 19 17 19 17 1 0 -16 2 -16 9 -4 6 8 7 18 4 24 -4 5 -1 6 7 1 25 -15 58
-14 56 2 0 9 7 17 17 18 9 2 15 -1 11 -6 -4 -8 7 -13 26 -11 3 0 6 -8 7 -19 2
-20 -34 -52 -49 -43 -4 3 -5 -3 -1 -12 4 -12 3 -15 -5 -10 -7 4 -12 1 -12 -7
0 -7 -7 -14 -15 -14 -12 0 -12 3 -2 16 10 14 10 14 -4 4 -9 -7 -19 -10 -23 -6
-4 4 -4 0 -1 -8 4 -10 0 -16 -9 -16 -8 0 -13 3 -11 7 2 4 -2 7 -10 7 -8 0 -12
-4 -10 -7 3 -4 -6 -7 -20 -7 -14 0 -23 3 -20 7 2 3 -2 7 -9 7 -8 0 -12 -7 -8
-15 3 -9 1 -13 -5 -9 -6 4 -14 0 -17 -9 -3 -8 -11 -12 -17 -8 -8 4 -8 1 -2
-12 5 -11 8 -26 7 -34 -1 -8 -2 -21 -3 -27 0 -7 -15 -20 -32 -29 -17 -8 -29
-12 -26 -7 2 4 -5 17 -16 28 l-20 20 12 -22 c8 -16 8 -24 -1 -29 -7 -4 -8 -3
-4 4 4 7 1 12 -9 12 -9 0 -13 5 -10 10 3 6 1 10 -4 10 -6 0 -11 -4 -11 -9 0
-5 -7 -11 -15 -15 -13 -5 -14 -2 -5 17 10 20 10 20 -3 5 -8 -10 -17 -15 -21
-11 -4 4 -4 0 0 -10 5 -13 2 -16 -12 -11 -16 5 -17 4 -4 -6 12 -9 12 -13 2
-17 -10 -4 -10 -8 -1 -19 9 -12 9 -13 -3 -9 -9 4 -18 -1 -22 -10 -3 -9 -2 -13
4 -10 6 3 10 -1 10 -10 0 -9 -4 -14 -9 -10 -5 3 -13 1 -16 -5 -4 -6 -1 -9 6
-8 6 2 14 -3 17 -11 3 -9 0 -11 -8 -6 -9 5 -11 4 -6 -3 4 -7 9 -21 11 -31 3
-15 -1 -18 -12 -14 -13 5 -14 3 -3 -17 8 -15 8 -20 1 -16 -6 4 -14 0 -17 -8
-3 -9 -10 -13 -16 -10 -5 3 -2 11 7 17 13 10 11 12 -11 14 -15 0 -22 -2 -16
-6 7 -4 8 -12 2 -21 -9 -13 -10 -13 -10 0 -1 12 -3 11 -11 -3 -6 -9 -14 -15
-19 -12 -4 3 -7 -3 -5 -12 2 -10 4 -22 4 -26 1 -5 5 -5 11 -2 5 3 10 1 10 -4
0 -6 -8 -11 -17 -11 -17 -1 -17 -1 0 -11 26 -15 21 -32 -5 -19 -23 11 -23 11
-3 -5 11 -9 19 -21 17 -27 -2 -6 4 -8 12 -5 10 4 13 -1 11 -18 -1 -15 2 -22 8
-18 6 4 8 0 4 -10 -3 -9 -1 -19 5 -23 7 -4 8 -3 4 4 -4 7 -2 12 3 12 6 0 11
-8 11 -18 0 -10 11 -28 25 -40 28 -24 40 -29 29 -10 -4 7 -3 8 4 4 6 -4 9 -13
6 -20 -3 -7 2 -16 12 -20 14 -5 14 -9 3 -23 -8 -10 -9 -14 -2 -10 6 4 14 3 18
-3 3 -5 -2 -10 -12 -11 -11 0 -13 -3 -5 -6 6 -2 9 -10 5 -16 -4 -7 0 -7 9 1
14 11 16 10 11 -7 -3 -12 -1 -21 6 -21 6 0 11 -5 11 -11 0 -5 -6 -7 -12 -3 -8
4 -10 3 -5 -2 5 -5 13 -10 18 -10 22 -3 23 -5 12 -12 -8 -5 -6 -14 8 -32 l20
-25 -11 25 c-10 24 -10 24 4 6 11 -14 13 -23 5 -32 -7 -8 -6 -14 2 -20 8 -4 9
-3 5 4 -4 7 -2 12 3 12 14 0 7 -43 -7 -48 -7 -2 -10 -7 -7 -12 7 -11 -16 -60
-28 -60 -5 0 -3 8 4 18 11 14 11 15 -1 5 -15 -13 -24 -47 -11 -38 5 2 7 -8 5
-23 -1 -14 3 -30 9 -34 9 -6 9 -8 0 -8 -7 0 -13 -5 -13 -12 0 -6 3 -9 6 -5 4
3 19 0 35 -8 34 -18 53 -19 43 -2 -5 9 -3 9 7 -1 12 -11 12 -14 -1 -22 -12 -7
-10 -9 7 -7 12 0 19 5 16 10 -3 5 12 8 34 6 30 -3 39 -1 36 8 -3 7 0 13 6 13
6 0 11 -6 11 -12 0 -9 3 -9 9 1 8 12 12 11 28 -4 16 -17 16 -18 1 -12 -10 3
-18 2 -18 -3 0 -6 9 -10 21 -10 19 0 19 -1 5 -16 -22 -21 -20 -27 5 -13 19 10
20 9 14 -11 -5 -15 -4 -20 4 -16 6 4 11 2 11 -5 0 -10 3 -10 12 -1 7 7 17 12
23 12 5 0 3 -5 -5 -10 -11 -8 0 -9 38 -6 31 3 52 1 52 -5 0 -6 5 -7 10 -4 6 4
8 12 4 18 -3 7 2 3 10 -7 15 -19 16 -19 16 -2 0 15 3 16 15 6 13 -11 14 -10
10 2 -4 10 1 17 14 21 12 3 21 0 22 -6 0 -7 4 -3 9 8 8 19 9 19 9 1 1 -13 6
-17 21 -13 17 4 20 2 15 -16 -5 -18 -4 -19 4 -6 7 11 19 15 36 11 20 -3 24 -9
20 -26 -2 -11 -2 -15 1 -8 9 19 38 14 53 -9 11 -19 11 -21 -3 -16 -12 5 -14 2
-7 -16 4 -12 6 -29 4 -37 -4 -13 -3 -13 6 0 9 13 12 13 23 1 8 -8 8 -11 1 -7
-13 7 -12 -19 2 -31 4 -4 5 -2 1 5 -11 19 12 14 24 -6 11 -16 11 -16 6 1 -4
14 -1 16 18 11 13 -3 27 -1 31 5 3 6 11 9 16 6 5 -4 9 0 9 7 0 9 3 9 10 -2 8
-13 10 -13 10 2 0 12 5 15 17 11 11 -4 14 -3 9 6 -6 8 -2 11 10 9 12 -2 18 2
16 10 -1 7 4 20 13 28 8 9 15 12 15 8 0 -4 6 0 13 9 12 17 40 18 54 2 4 -4 2
-5 -6 0 -10 5 -12 4 -7 -3 5 -9 13 -9 27 -1 11 6 27 8 35 5 8 -3 17 1 20 9 4
8 12 15 20 15 8 0 14 7 14 15 0 8 5 15 11 15 5 0 7 -5 3 -12 -5 -7 -3 -8 5 -4
7 5 10 15 6 23 -4 13 -3 14 10 3 8 -7 26 -10 40 -8 14 3 28 1 32 -5 3 -6 1 -7
-5 -3 -7 4 -12 2 -12 -3 0 -15 11 -13 34 4 13 10 24 11 37 4 13 -7 19 -6 19 1
0 6 5 8 10 5 6 -3 10 0 10 7 0 9 3 9 10 -2 8 -13 10 -12 10 4 0 16 2 17 17 5
15 -13 15 -12 3 11 -12 22 -12 24 2 12 13 -10 18 -10 24 -1 4 7 3 9 -3 6 -6
-4 -10 4 -10 18 0 14 3 25 7 25 4 0 10 7 14 15 5 15 -14 17 -25 2 -3 -5 -9 -1
-12 8 -4 9 -3 13 3 10 6 -3 10 -1 10 4 0 6 -4 11 -10 11 -20 0 -9 33 20 58 17
15 30 31 30 37 0 5 -5 2 -11 -7 -5 -10 -15 -18 -20 -18 -6 0 -3 7 5 16 9 8 16
20 16 25 0 5 6 8 13 6 6 -1 11 4 9 12 -2 8 3 11 12 8 10 -4 14 0 11 12 -2 10
3 18 10 18 7 0 11 -7 8 -16 -2 -10 1 -8 9 4 14 22 38 31 38 15 0 -6 5 -10 11
-10 5 0 7 5 4 10 -6 9 8 15 29 11 5 -1 6 4 3 12 -3 7 1 14 9 14 7 0 10 -5 7
-10 -3 -6 -1 -7 5 -3 7 4 12 14 12 21 0 8 6 12 14 9 8 -3 17 0 22 7 5 8 3 10
-6 4 -9 -6 -11 -4 -6 4 5 7 13 10 20 8 7 -3 12 7 12 24 1 19 -2 26 -10 22 -6
-4 -5 1 3 10 7 9 9 17 3 17 -5 0 -13 7 -16 16 -4 9 -2 13 5 8 7 -4 10 -1 7 7
-3 8 -12 13 -19 11 -9 -2 -7 4 5 17 20 22 32 28 21 11 -3 -6 -1 -10 5 -10 6 0
8 -4 5 -10 -3 -6 1 -7 10 -3 12 4 13 8 5 13 -7 4 -9 13 -5 19 5 9 10 9 21 0 8
-6 17 -9 21 -5 3 3 1 6 -6 6 -9 0 -9 4 1 14 15 16 32 11 22 -6 -4 -7 -2 -8 5
-4 6 4 9 11 6 16 -3 5 4 14 15 20 11 6 20 17 20 24 0 8 6 19 14 25 19 16 12
50 -14 68 -11 8 -20 21 -20 29 0 8 -5 14 -11 14 -5 0 -7 -5 -3 -12 4 -7 3 -8
-4 -4 -6 4 -9 13 -6 21 4 9 -1 12 -13 10 -21 -3 -63 32 -63 52 0 8 -4 12 -9 8
-5 -3 -13 0 -17 6 -5 8 -3 9 6 4 10 -6 12 -4 6 10 -5 15 -4 16 9 5 13 -11 14
-10 9 4 -3 9 -11 16 -16 16 -5 0 -8 16 -7 34 2 19 -1 39 -5 43 -5 5 -6 2 -1
-6 6 -10 4 -12 -4 -7 -9 6 -9 11 0 22 8 10 8 14 0 14 -6 0 -11 9 -11 19 0 11
-3 21 -7 24 -5 2 -3 2 4 1 7 -2 15 2 19 8 4 6 3 8 -3 5 -6 -4 -17 1 -24 10 -9
11 -10 14 -2 9 9 -5 12 1 9 23 -2 22 1 31 11 31 8 0 11 5 8 10 -4 6 -11 8 -16
5 -5 -3 -6 1 -3 9 3 9 11 13 18 9 6 -4 4 1 -4 11 -8 10 -13 32 -11 48 2 23 0
28 -11 22 -11 -6 -11 -5 0 8 10 13 10 17 0 20 -7 3 -12 22 -12 45 -1 40 -2 41
-20 25 -15 -14 -17 -14 -15 -2 4 15 -1 20 -22 20 -5 0 -8 -3 -6 -7 3 -5 -12
-8 -34 -9 -21 0 -39 4 -39 9 0 4 10 5 23 1 26 -8 22 -2 -12 16 -13 6 -21 7
-17 2 3 -6 2 -13 -4 -17 -5 -3 -10 0 -10 7 0 8 -9 20 -20 28 -14 10 -16 17 -9
26 7 8 6 15 -2 20 -8 4 -9 3 -5 -4 4 -7 1 -12 -7 -12 -8 0 -19 15 -25 33 -7
17 -10 22 -8 9 3 -15 0 -22 -7 -19 -7 3 -11 10 -9 16 1 7 -2 10 -8 6 -6 -3
-18 1 -27 10 -15 16 -18 16 -28 1 -14 -19 -30 -22 -19 -3 5 8 2 7 -9 -2 -13
-11 -15 -17 -6 -28 9 -11 9 -12 -4 -8 -8 4 -18 1 -23 -6 -4 -7 -3 -10 3 -6 6
4 13 0 17 -8 3 -8 1 -15 -4 -15 -5 0 -7 -8 -5 -18 2 -11 -3 -19 -10 -19 -8 0
-11 5 -8 10 4 6 0 8 -10 4 -9 -3 -19 -1 -23 5 -5 7 -2 8 6 3 8 -5 11 -4 7 3
-6 8 -42 10 -42 2 0 -1 -8 -3 -18 -5 -11 -2 -15 1 -11 8 5 8 3 8 -6 0 -11 -10
-16 -9 -27 5 -12 16 -13 16 -7 0 7 -20 -15 -25 -33 -7 -8 8 -13 8 -17 0 -4 -6
-15 -11 -24 -11 -15 0 -15 2 -2 10 8 5 10 10 4 10 -6 0 -14 -3 -18 -7 -11 -11
-30 -10 -38 2 -5 6 -8 5 -8 -3 0 -7 -5 -10 -10 -7 -6 4 -10 3 -9 -2 4 -21 -2
-44 -10 -39 -4 3 -6 -6 -3 -19 2 -14 11 -25 21 -25 14 -1 14 -2 -2 -14 -12 -9
-14 -16 -8 -21 6 -3 11 -1 11 4 0 6 5 11 11 11 5 0 7 -4 4 -10 -3 -5 1 -10 9
-10 9 0 16 -5 16 -11 0 -5 -4 -8 -8 -5 -5 3 -8 -4 -8 -16 1 -12 -5 -23 -11
-25 -7 -3 -13 0 -13 7 0 6 5 8 12 4 6 -4 8 -3 5 4 -4 5 -17 8 -29 4 -17 -4
-20 -2 -15 12 5 11 3 15 -5 10 -7 -5 -9 -2 -5 9 4 11 2 14 -9 10 -11 -4 -15 0
-12 13 2 11 -2 18 -10 16 -6 -1 -11 1 -11 5 3 19 -2 33 -12 33 -5 0 -8 -4 -5
-9 4 -5 -3 -7 -14 -4 -11 3 -17 10 -13 17 4 6 -1 5 -10 -3 -14 -11 -17 -11
-17 0 0 10 -3 10 -12 1 -9 -9 -15 -7 -25 6 -8 9 -12 12 -9 6 3 -7 -1 -14 -9
-18 -9 -3 -15 0 -15 10 0 8 -5 12 -10 9 -6 -4 -8 -10 -6 -14 3 -4 -8 -7 -24
-6 -15 0 -26 3 -23 7 2 5 -5 8 -16 8 -20 0 -34 14 -37 38 -2 10 5 9 24 -4 l27
-17 -19 22 c-19 21 -19 21 -1 15 12 -5 16 -4 12 3 -5 8 5 10 28 9 28 -3 33 0
25 10 -9 10 -6 11 9 7 14 -3 21 -1 21 8 0 11 2 11 10 -1 7 -11 10 -11 10 -2 0
7 5 10 10 7 6 -3 10 -1 10 5 0 7 7 7 23 -1 20 -11 21 -11 9 4 -12 14 -11 16 7
12 12 -2 21 0 21 5 0 5 6 7 14 4 8 -3 17 -1 21 5 9 15 28 14 20 -1 -4 -7 3 -2
15 12 12 14 19 19 15 11 -6 -10 -2 -11 16 -6 13 4 27 13 31 19 9 13 29 15 45
4 7 -6 14 -4 19 3 4 8 3 9 -4 5 -7 -4 -12 -2 -12 3 0 15 23 14 39 -1 7 -7 12
-8 11 -3 -5 23 1 34 14 29 8 -3 17 0 21 6 5 8 11 7 23 -2 9 -7 13 -8 9 -2 -4
7 2 14 14 17 14 4 18 2 12 -7 -4 -6 2 0 15 14 15 16 20 19 16 8 -3 -10 -1 -18
5 -18 6 0 11 7 11 16 0 12 6 15 21 11 16 -4 19 -2 15 10 -4 10 -2 13 7 10 7
-2 18 6 24 19 6 13 7 22 2 18 -16 -10 -9 8 9 23 9 8 12 12 6 9 -18 -9 -46 38
-31 53 12 12 9 13 -45 15 -22 1 -25 -1 -15 -13 10 -12 9 -14 -6 -8 -11 4 -16
3 -12 -3 3 -6 -1 -13 -9 -16 -9 -3 -13 -10 -10 -15 3 -5 0 -9 -5 -9 -6 0 -11
6 -11 12 0 7 -7 2 -16 -10 -12 -17 -19 -20 -29 -12 -10 8 -15 7 -19 -2 -5 -11
-7 -11 -12 0 -5 10 -10 9 -21 -5 -8 -10 -12 -12 -8 -6 4 9 1 11 -9 7 -9 -3
-14 -9 -12 -13 2 -3 -16 -6 -40 -6 -24 0 -44 2 -44 5 0 3 -9 6 -19 6 -11 0
-17 -4 -15 -8 3 -4 -5 -8 -18 -8 -19 0 -20 2 -8 11 12 9 12 10 -3 5 -10 -3
-21 -6 -23 -6 -3 0 -2 -5 2 -11 4 -7 -1 -7 -16 1 -12 6 -24 9 -27 7 -10 -10
-64 52 -61 69 2 11 -3 19 -12 19 -9 0 -15 9 -14 22 1 15 -3 20 -10 15 -14 -9
-49 -9 -56 0 -3 3 -15 -5 -27 -20z m-283 -452 c0 -5 -5 -10 -11 -10 -5 0 -7 5
-4 10 3 6 8 10 11 10 2 0 4 -4 4 -10z m925 -27 c15 -5 14 -8 -6 -19 l-24 -13
29 2 c21 1 30 -3 32 -16 1 -9 -1 -15 -5 -12 -4 2 -8 -2 -8 -9 0 -8 7 -12 16
-9 11 3 10 0 -4 -12 -20 -17 -20 -17 5 -10 22 7 23 6 12 -8 -10 -12 -10 -17
-1 -23 8 -5 9 -3 4 6 -5 8 -4 11 3 6 6 -4 8 -14 5 -23 -4 -10 -2 -14 4 -10 6
4 13 -2 16 -13 3 -11 1 -18 -3 -15 -5 3 -11 1 -14 -4 -7 -11 13 -9 31 2 9 6
11 3 6 -9 -4 -11 -3 -15 4 -11 7 4 17 -6 24 -22 7 -16 17 -27 23 -24 5 4 6 1
2 -6 -5 -7 -18 -17 -30 -22 -19 -8 -18 -9 6 -4 27 5 31 -6 15 -33 -8 -12 -30
-7 -24 6 4 8 -46 58 -53 53 -7 -4 -18 33 -12 43 2 4 -2 12 -9 17 -10 6 -11 9
-1 9 6 0 12 5 12 11 0 6 -7 8 -16 5 -9 -3 -12 -2 -9 5 4 6 0 9 -10 7 -10 -2
-20 4 -22 12 -4 13 -3 13 6 0 6 -8 11 -10 11 -4 0 6 -8 18 -17 25 -10 8 -14 9
-10 2 4 -6 3 -14 -3 -18 -5 -3 -10 -2 -10 4 0 6 -11 6 -29 1 -16 -4 -32 -6
-34 -3 -3 2 -18 -4 -34 -14 -23 -15 -26 -15 -15 -1 10 12 10 18 1 24 -8 4 -9
3 -5 -4 4 -7 1 -12 -9 -12 -9 0 -14 -4 -10 -9 3 -6 -4 -8 -17 -5 -13 3 -28 6
-35 6 -23 2 -2 68 22 68 3 0 3 -6 -1 -12 -3 -7 4 -2 17 12 13 14 20 19 14 11
-9 -12 -7 -12 13 -2 12 6 27 9 32 6 5 -3 18 5 29 17 20 21 21 21 22 2 0 -16 2
-16 10 4 5 13 18 26 30 29 16 4 17 8 7 14 -16 10 -6 12 17 2z m-95 -49 c0 -8
-19 -13 -24 -6 -3 5 1 9 9 9 8 0 15 -2 15 -3z m-147 -277 c7 4 7 0 -1 -9 -8
-10 -20 -14 -29 -11 -12 5 -14 3 -8 -7 5 -9 4 -11 -3 -6 -7 4 -12 1 -12 -6 0
-10 -2 -10 -9 1 -5 7 -14 10 -20 7 -6 -4 -9 -12 -6 -17 3 -5 -1 -6 -10 -3 -12
5 -13 9 -3 18 7 6 19 18 27 26 9 10 11 10 6 1 -6 -10 -2 -11 16 -6 13 4 26 13
28 19 3 7 6 7 9 -2 2 -6 9 -9 15 -5z m667 -161 c0 -6 -7 0 -16 12 -8 12 -19
20 -23 18 -4 -3 -8 2 -8 10 0 11 6 9 24 -8 13 -12 23 -26 23 -32z m-1800 14
c0 -5 -5 -10 -11 -10 -5 0 -7 5 -4 10 3 6 8 10 11 10 2 0 4 -4 4 -10z m1370
-115 c-5 -6 -5 -16 2 -25 8 -12 9 -11 4 3 -8 24 14 17 28 -9 6 -10 12 -21 14
-24 2 -2 8 2 13 10 9 13 10 13 6 0 -2 -9 -16 -15 -33 -16 -16 0 -40 -4 -54 -7
-14 -4 -19 -4 -12 -1 6 3 12 10 12 15 0 6 -4 8 -8 5 -5 -3 -9 1 -9 9 0 8 5 11
10 8 6 -4 8 0 4 10 -3 10 -2 17 4 17 6 0 8 4 5 8 -3 5 1 9 9 9 10 0 12 -4 5
-12z m-416 -257 c-3 -4 -9 -8 -15 -8 -5 0 -9 4 -9 8 0 5 7 9 15 9 8 0 12 -4 9
-9z m-380 -30 c-3 -4 0 -8 5 -8 6 0 11 -7 11 -16 0 -9 5 -12 12 -8 6 4 8 3 5
-2 -3 -6 3 -16 15 -23 11 -7 18 -9 15 -4 -3 4 13 9 35 9 21 1 34 -2 28 -6 -6
-4 -12 -17 -13 -28 -1 -12 -5 -22 -9 -22 -4 0 -8 -5 -8 -10 0 -6 8 -5 20 2 14
9 16 14 7 20 -9 6 -9 8 0 8 18 0 23 -14 10 -30 -13 -17 -51 -20 -64 -6 -5 5
-2 6 6 1 9 -5 12 -4 8 2 -4 6 -18 9 -32 8 -16 -2 -23 1 -18 7 4 7 -2 9 -15 6
-25 -7 -28 1 -9 22 6 8 1 6 -12 -5 -14 -11 -21 -14 -17 -7 4 6 2 12 -4 12 -6
0 -8 5 -5 10 3 6 0 10 -8 10 -9 0 -12 9 -9 31 3 22 7 27 13 18 7 -11 9 -11 9
2 0 9 7 16 15 16 8 0 12 -4 9 -9z m393 -1 c7 -4 9 -15 6 -24 -4 -11 -3 -14 5
-9 8 5 10 2 6 -8 -3 -9 -11 -14 -17 -13 -7 1 -11 -4 -9 -10 1 -7 -4 -12 -10
-10 -7 1 -12 -4 -10 -11 1 -7 -4 -15 -12 -18 -8 -3 -12 -13 -9 -22 4 -13 3
-14 -5 -4 -5 8 -13 13 -18 13 -5 0 -9 6 -9 13 0 8 -4 18 -9 23 -5 4 -7 3 -3
-2 3 -6 -2 -11 -12 -11 -10 0 -18 6 -18 12 0 7 6 10 14 7 7 -3 13 0 13 5 0 6
9 9 19 7 13 -2 21 3 24 17 5 16 9 18 25 9 14 -7 19 -7 19 4 0 8 -5 13 -10 12
-5 -1 -11 5 -12 14 -3 17 10 19 32 6z m263 -87 c0 -5 -4 -10 -10 -10 -5 0 -10
5 -10 10 0 6 5 10 10 10 6 0 10 -4 10 -10z m1 -17 c8 2 10 2 5 -1 -4 -2 -3 -8
4 -12 8 -5 4 -16 -15 -36 -26 -29 -26 -29 -20 -4 7 25 7 25 -10 5 -9 -11 -13
-14 -9 -6 5 10 3 13 -9 8 -8 -3 -18 0 -20 7 -8 19 9 40 26 33 12 -4 14 -2 10
11 -6 14 -4 15 9 4 8 -7 22 -11 29 -9z m-235 -78 c10 -2 20 -4 22 -5 1 -2 6
-3 11 -4 13 -1 51 -47 51 -60 0 -6 -5 -4 -10 4 -9 13 -11 13 -20 0 -6 -10 -10
-11 -10 -3 0 7 -7 10 -15 7 -8 -4 -15 -1 -15 6 0 6 4 8 10 5 6 -3 7 1 4 10 -6
14 -8 14 -21 -2 -8 -10 -12 -12 -8 -5 4 7 0 12 -9 12 -18 0 -35 29 -28 49 3
10 6 10 12 1 4 -6 16 -13 26 -15z"/>
<path d="M1586 1277 c3 -10 9 -15 12 -12 3 3 0 11 -7 18 -10 9 -11 8 -5 -6z"/>
<path d="M726 538 c3 -5 10 -6 15 -3 13 9 11 12 -6 12 -8 0 -12 -4 -9 -9z"/>
<path d="M1046 622 c-3 -5 1 -9 9 -9 8 0 12 4 9 9 -3 4 -7 8 -9 8 -2 0 -6 -4
-9 -8z"/>
<path d="M1026 573 c2 -7 0 -13 -4 -13 -4 0 -12 -11 -18 -24 -10 -22 -10 -24
7 -13 10 6 16 13 14 16 -3 2 3 13 12 24 10 11 13 17 6 14 -6 -4 -13 -4 -16 0
-2 5 -2 2 -1 -4z"/>
<path d="M1130 425 c0 -5 5 -17 10 -25 5 -8 10 -10 10 -5 0 6 -5 17 -10 25 -5
8 -10 11 -10 5z"/>
<path d="M595 1940 c-3 -5 -1 -10 4 -10 6 0 11 5 11 10 0 6 -2 10 -4 10 -3 0
-8 -4 -11 -10z"/>
<path d="M1467 1939 c7 -7 15 -10 18 -7 3 3 -2 9 -12 12 -14 6 -15 5 -6 -5z"/>
<path d="M1313 1915 c0 -8 4 -12 9 -9 5 3 6 10 3 15 -9 13 -12 11 -12 -6z"/>
<path d="M508 1733 c7 -3 16 -2 19 1 4 3 -2 6 -13 5 -11 0 -14 -3 -6 -6z"/>
<path d="M1410 1636 c0 -2 8 -10 18 -17 15 -13 16 -12 3 4 -13 16 -21 21 -21
13z"/>
<path d="M1810 1545 c0 -5 5 -17 10 -25 5 -8 10 -10 10 -5 0 6 -5 17 -10 25
-5 8 -10 11 -10 5z"/>
<path d="M603 1495 c0 -8 4 -12 9 -9 5 3 6 10 3 15 -9 13 -12 11 -12 -6z"/>
<path d="M1838 1423 c7 -3 16 -2 19 1 4 3 -2 6 -13 5 -11 0 -14 -3 -6 -6z"/>
<path d="M335 1311 c-3 -5 -2 -12 3 -15 5 -3 9 1 9 9 0 17 -3 19 -12 6z"/>
<path d="M1987 979 c7 -7 15 -10 18 -7 3 3 -2 9 -12 12 -14 6 -15 5 -6 -5z"/>
<path d="M1585 430 c-3 -6 1 -7 9 -4 18 7 21 14 7 14 -6 0 -13 -4 -16 -10z"/>
<path d="M240 426 c0 -2 8 -10 18 -17 15 -13 16 -12 3 4 -13 16 -21 21 -21 13z"/>
<path d="M1475 261 c-3 -5 -2 -12 3 -15 5 -3 9 1 9 9 0 17 -3 19 -12 6z"/>
<path d="M847 239 c7 -7 15 -10 18 -7 3 3 -2 9 -12 12 -14 6 -15 5 -6 -5z"/>
<path d="M633 223 c0 -9 4 -10 14 -2 7 6 13 12 13 14 0 1 -6 2 -13 2 -8 0 -14
-6 -14 -14z"/>
<path d="M1165 180 c-3 -6 1 -7 9 -4 18 7 21 14 7 14 -6 0 -13 -4 -16 -10z"/>
</g>
</svg>
